<?xml version="1.0" encoding="utf-8"?>
<!-- Generator: Adobe Illustrator 19.2.1, SVG Export Plug-In . SVG Version: 6.00 Build 0)  -->
<svg version="1.1" id="Objects" xmlns="http://www.w3.org/2000/svg" xmlns:xlink="http://www.w3.org/1999/xlink" x="0px" y="0px"
	 viewBox="0 0 280.1 45.3" style="enable-background:new 0 0 280.1 45.3;" xml:space="preserve">
<style type="text/css">
	.st0{opacity:0.5;}
	.st1{clip-path:url(#SVGID_2_);}
	.st2{fill:url(#bglinediagonal_1_);}
</style>
<title>bgbttn</title>
<g id="bgbttm" class="st0">
	<g>
		<defs>
			<rect id="SVGID_1_" width="280.1" height="45.3"/>
		</defs>
		<clipPath id="SVGID_2_">
			<use xlink:href="#SVGID_1_"  style="overflow:visible;"/>
		</clipPath>
		<g class="st1">
			
				<linearGradient id="bglinediagonal_1_" gradientUnits="userSpaceOnUse" x1="-25.6672" y1="-150.94" x2="297.1904" y2="-150.94" gradientTransform="matrix(1 0 0 -1 6.62 -128.28)">
				<stop  offset="0" style="stop-color:#00D4FF"/>
				<stop  offset="0.13" style="stop-color:#04D3FD;stop-opacity:0.83"/>
				<stop  offset="0.42" style="stop-color:#0CD0FA;stop-opacity:0.48"/>
				<stop  offset="0.66" style="stop-color:#13CEF7;stop-opacity:0.22"/>
				<stop  offset="0.83" style="stop-color:#17CCF6;stop-opacity:6.000000e-002"/>
				<stop  offset="0.92" style="stop-color:#18CCF5;stop-opacity:0"/>
			</linearGradient>
			<path id="bglinediagonal" class="st2" d="M-42.7,54l-1.1-1.1L14.6-8.7l1.1,1.1L-42.7,54z M23.2-7.6l-1.1-1.1l-58.4,61.7l1.1,1.1
				L23.2-7.6z M30.7-7.6l-1.1-1.1l-58.4,61.7l1.1,1.1L30.7-7.6z M38.3-7.6l-1.1-1.1l-58.5,61.7l1.1,1.1L38.3-7.6z M45.8-7.6
				l-1.1-1.1l-58.5,61.7l1.1,1.1L45.8-7.6z M53.3-7.6l-1.1-1.1L-6.2,52.9l1.1,1.1L53.3-7.6z M60.8-7.6l-1.1-1.1L1.3,52.9L2.3,54
				L60.8-7.6z M68.3-7.6l-1.1-1.1L8.8,52.9L9.9,54L68.3-7.6z M75.9-7.6l-1.1-1.1L16.3,52.9l1.1,1.1L75.9-7.6z M83.4-7.6l-1.1-1.1
				L23.9,52.9l1.1,1.1L83.4-7.6z M90.9-7.6l-1.1-1.1L31.4,52.9l1.1,1.1L90.9-7.6z M98.4-7.6l-1.1-1.1L38.9,52.9l1.1,1.1L98.4-7.6z
				 M105.9-7.6l-1.1-1.1L46.4,52.9l1.1,1.1L105.9-7.6z M113.5-7.6l-1.1-1.1L53.9,52.9L55,54L113.5-7.6z M121-7.6l-1.1-1.1L61.4,52.9
				l1.1,1.1L121-7.6z M128.5-7.6l-1.1-1.1L68.9,52.9L70,54L128.5-7.6z M136-7.6L135-8.7L76.5,52.9l1.1,1.1L136-7.6z M143.6-7.6
				l-1.1-1.1L84,52.9L85,54L143.6-7.6z M151.1-7.6L150-8.7L91.5,52.9l1.1,1.1L151.1-7.6z M158.6-7.6l-1.1-1.1L99,52.9l1.1,1.1
				L158.6-7.6z M166.1-7.6l-1.1-1.1l-58.5,61.7l1.1,1.1L166.1-7.6z M173.6-7.6l-1.1-1.1L114,52.9l1.1,1.1L173.6-7.6z M181.2-7.6
				l-1.1-1.1l-58.5,61.7l1.1,1.1L181.2-7.6z M188.7-7.6l-1.1-1.1l-58.6,61.7l1.1,1.1L188.7-7.6z M196.2-7.6l-1.1-1.1l-58.6,61.7
				l1.1,1.1L196.2-7.6z M203.7-7.6l-1.1-1.1l-58.6,61.7l1.1,1.1L203.7-7.6z M211.3-7.6l-1.1-1.1l-58.6,61.7l1.1,1.1L211.3-7.6z
				 M218.8-7.6l-1.1-1.1l-58.6,61.7l1.1,1.1L218.8-7.6z M226.3-7.6l-1.1-1.1l-58.6,61.7l1.1,1.1L226.3-7.6z M233.8-7.6l-1.1-1.1
				l-58.6,61.7l1.1,1.1L233.8-7.6z M241.3-7.6l-1.1-1.1l-58.6,61.7l1.1,1.1L241.3-7.6z M248.9-7.6l-1.1-1.1l-58.6,61.7l1.1,1.1
				L248.9-7.6z M256.4-7.6l-1.1-1.1l-58.6,61.7l1.1,1.1L256.4-7.6z M263.9-7.6l-1.1-1.1l-58.6,61.7l1.1,1.1L263.9-7.6z M271.4-7.6
				l-1.1-1.1l-58.6,61.7l1.1,1.1L271.4-7.6z M278.9-7.6l-1.1-1.1l-58.6,61.7l1.1,1.1L278.9-7.6z M286.5-7.6l-1.1-1.1l-58.6,61.7
				l1.1,1.1L286.5-7.6z M294-7.6l-1.1-1.1l-58.6,61.7l1.1,1.1L294-7.6z M301.5-7.6l-1.1-1.1l-58.6,61.7l1.1,1.1L301.5-7.6z M309-7.6
				L308-8.7l-58.6,61.7l1.1,1.1L309-7.6z M316.6-7.6l-1.1-1.1l-58.6,61.7l1.1,1.1L316.6-7.6z M324.1-7.6L323-8.7l-58.7,61.7l1.1,1.1
				L324.1-7.6z"/>
		</g>
	</g>
</g>
</svg>
