<svg id="Objects" xmlns="http://www.w3.org/2000/svg" xmlns:xlink="http://www.w3.org/1999/xlink" viewBox="0 0 280.09 45.32"><defs><style>.cls-1,.cls-11,.cls-5{fill:none;}.cls-2{opacity:0.5;}.cls-3{clip-path:url(#clip-path);}.cls-4{fill:url(#linear-gradient);}.cls-5{stroke:aqua;}.cls-11,.cls-5{stroke-miterlimit:10;stroke-width:2.28px;}.cls-6{fill:url(#linear-gradient-2);}.cls-7{fill:url(#linear-gradient-3);}.cls-8{fill:url(#linear-gradient-4);}.cls-9{fill:url(#linear-gradient-5);}.cls-10{font-size:15.47px;fill:aqua;font-family:Exo DemiBold;font-weight:700;}.cls-11{stroke:url(#linear-gradient-6);}</style><clipPath id="clip-path" transform="translate(6.62 -86.85)"><rect class="cls-1" x="26.75" y="93.15" width="213.37" height="32.72"/></clipPath><linearGradient id="linear-gradient" x1="12.24" y1="109.51" x2="258.19" y2="109.51" gradientUnits="userSpaceOnUse"><stop offset="0" stop-color="#00d4ff"/><stop offset="0.13" stop-color="#04d3fd" stop-opacity="0.83"/><stop offset="0.42" stop-color="#0cd0fa" stop-opacity="0.48"/><stop offset="0.66" stop-color="#13cef7" stop-opacity="0.22"/><stop offset="0.83" stop-color="#17ccf6" stop-opacity="0.06"/><stop offset="0.92" stop-color="#18ccf5" stop-opacity="0"/></linearGradient><linearGradient id="linear-gradient-2" x1="30.52" y1="8.72" x2="40.9" y2="8.72" gradientUnits="userSpaceOnUse"><stop offset="0" stop-color="#00d4ff"/><stop offset="0.5" stop-color="#18ccf5"/><stop offset="1" stop-color="#00d4ff"/></linearGradient><linearGradient id="linear-gradient-3" x1="-2973.92" y1="95.57" x2="-2963.54" y2="95.57" gradientTransform="matrix(-1, 0, 0, 1, -2724.35, -86.85)" xlink:href="#linear-gradient-2"/><linearGradient id="linear-gradient-4" x1="23.9" y1="296.05" x2="34.28" y2="296.05" gradientTransform="matrix(1, 0, 0, -1, 6.62, 332.65)" xlink:href="#linear-gradient-2"/><linearGradient id="linear-gradient-5" x1="-2973.92" y1="296.05" x2="-2963.54" y2="296.05" gradientTransform="translate(-2724.35 332.65) rotate(180)" xlink:href="#linear-gradient-2"/><linearGradient id="linear-gradient-6" x1="212.6" y1="22.66" x2="235.16" y2="22.66" xlink:href="#linear-gradient-2"/></defs><title>11357-NN96X0 [Восстановлен]</title><g class="cls-2"><g class="cls-3"><path class="cls-4" d="M-5.81,132.17l-0.8-.8L37.9,86.85l0.8,0.8ZM44.43,87.65l-0.8-.8L-0.89,131.36l0.8,0.8Zm5.73,0-0.8-.8L4.84,131.36l0.8,0.8Zm5.73,0-0.8-.8L10.56,131.36l0.8,0.8Zm5.73,0-0.8-.8L16.29,131.36l0.8,0.8Zm5.73,0-0.8-.8L22,131.36l0.8,0.8Zm5.73,0-0.8-.8L27.74,131.36l0.8,0.8Zm5.73,0-0.8-.8L33.47,131.36l0.8,0.8Zm5.73,0-0.8-.8L39.19,131.36l0.8,0.8Zm5.73,0-0.8-.8L44.92,131.36l0.8,0.8Zm5.73,0-0.8-.8L50.64,131.36l0.8,0.8Zm5.73,0-0.8-.8L56.37,131.36l0.8,0.8Zm5.73,0-0.8-.8L62.1,131.36l0.8,0.8Zm5.73,0-0.8-.8L67.82,131.36l0.8,0.8Zm5.73,0-0.8-.8L73.55,131.36l0.8,0.8Zm5.73,0-0.8-.8L79.27,131.36l0.8,0.8Zm5.73,0-0.8-.8L85,131.36l0.8,0.8Zm5.73,0-0.8-.8L90.73,131.36l0.8,0.8Zm5.73,0-0.8-.8L96.45,131.36l0.8,0.8Zm5.73,0-0.8-.8-44.52,44.52,0.8,0.8Zm5.73,0-0.8-.8L107.9,131.36l0.8,0.8Zm5.73,0-0.8-.8-44.52,44.52,0.8,0.8Zm5.73,0-0.8-.8-44.52,44.52,0.8,0.8Zm5.73,0-0.8-.8-44.52,44.52,0.8,0.8Zm5.73,0-0.8-.8-44.52,44.52,0.8,0.8Zm5.73,0-0.8-.8-44.52,44.52,0.8,0.8Zm5.73,0-0.8-.8-44.52,44.52,0.8,0.8Zm5.73,0-0.8-.8L148,131.36l0.8,0.8Zm5.73,0-0.8-.8-44.52,44.52,0.8,0.8Zm5.73,0-0.8-.8-44.52,44.52,0.8,0.8Zm5.73,0-0.8-.8-44.52,44.52,0.8,0.8Zm5.73,0-0.8-.8-44.52,44.52,0.8,0.8Zm5.73,0-0.8-.8-44.52,44.52,0.8,0.8Zm5.73,0-0.8-.8-44.52,44.52,0.8,0.8Zm5.73,0-0.8-.8-44.52,44.52,0.8,0.8Zm5.73,0-0.8-.8L193.8,131.36l0.8,0.8Zm5.73,0-0.8-.8-44.52,44.52,0.8,0.8Zm5.73,0-0.8-.8-44.52,44.52,0.8,0.8Zm5.73,0-0.8-.8L211,131.36l0.8,0.8Zm5.73,0-0.8-.8L216.7,131.36l0.8,0.8Zm5.73,0-0.8-.8-44.52,44.52,0.8,0.8Zm5.73,0-0.8-.8-44.52,44.52,0.8,0.8Z" transform="translate(6.62 -86.85)"/></g></g><rect class="cls-5" x="33.36" y="6.3" width="213.37" height="32.72"/><polygon class="cls-6" points="36.21 11.14 36.21 9.15 38.06 9.15 40.9 3.46 30.52 3.46 30.52 13.98 36.21 11.14"/><polygon class="cls-7" points="243.88 11.14 243.88 9.15 242.03 9.15 239.19 3.46 249.57 3.46 249.57 13.98 243.88 11.14"/><polygon class="cls-8" points="36.21 34.18 36.21 36.17 38.06 36.17 40.9 41.87 30.52 41.87 30.52 31.34 36.21 34.18"/><polygon class="cls-9" points="243.88 34.18 243.88 36.17 242.03 36.17 239.19 41.87 249.57 41.87 249.57 31.34 243.88 34.18"/><text class="cls-10" transform="translate(45.94 28.95)">L<tspan x="6.7" y="0">OREM IPSUM DO</tspan><tspan x="115.25" y="0">L</tspan><tspan x="121.95" y="0">OR</tspan></text><rect class="cls-11" x="213.74" y="12.52" width="20.28" height="20.28"/></svg>