<svg id="navbar" xmlns="http://www.w3.org/2000/svg" viewBox="0 0 52.65 51"><defs><style>.cls-1{fill:#3567b0;}</style></defs><title>galaxy</title><g id="Слой_2" data-name="Слой 2"><path class="cls-1" d="M166.94,105.95a16.62,16.62,0,0,1,6.8-12.82,19.8,19.8,0,0,1,21.41-1.54,15.56,15.56,0,0,1,4.6,4.05,1.22,1.22,0,0,1-1.56,1.79,21.51,21.51,0,0,0-16.82-1.24,21.6,21.6,0,0,0-8.8,5.62,21.88,21.88,0,0,0-3.29,4.69A1.25,1.25,0,0,1,166.94,105.95Zm28-3.88A17.87,17.87,0,0,0,180,99.67a1.19,1.19,0,0,0,.18,2.33,23.22,23.22,0,0,1,5.63,1.58,21.43,21.43,0,0,1,8.24,6.36,19.68,19.68,0,0,1,4,15.86,1.24,1.24,0,0,0,2.24.88,15,15,0,0,0,2.56-5.48C204.61,114,201.15,106.2,194.91,102.07ZM188,110.65a21.3,21.3,0,0,1,.17,5.88,20.28,20.28,0,0,1-4,9.81,21.29,21.29,0,0,1-8.75,6.69,23.1,23.1,0,0,1-5.28,1.4,1.19,1.19,0,0,0-.16,2.33,16.23,16.23,0,0,0,6,.68,19.11,19.11,0,0,0,16.54-13.38,16.32,16.32,0,0,0-2.27-14.31A1.24,1.24,0,0,0,188,110.65Zm-18.1,18.17a17.59,17.59,0,0,0,13.56-6.51,1.22,1.22,0,0,0-1.56-1.78,23,23,0,0,1-5.51,1.92,22.08,22.08,0,0,1-11.31-.7,21.67,21.67,0,0,1-8.8-5.61,21.06,21.06,0,0,1-3.27-4.71,1.25,1.25,0,0,0-2.35.56,14.81,14.81,0,0,0,1.26,5.89C154.9,124.66,162.38,129,169.92,128.82Zm-0.85-8.88a1.21,1.21,0,0,0,1.27-2,22.07,22.07,0,0,1-3.6-4.48,20,20,0,0,1,0-20.45,21.22,21.22,0,0,1,3.62-4.47,1.21,1.21,0,0,0-1.28-2,15.89,15.89,0,0,0-5.4,3,18.23,18.23,0,0,0-5.1,20.18A17.08,17.08,0,0,0,169.08,119.94Z" transform="translate(-150.68 -86.5)"/></g></svg>