<svg id="Слой_1" data-name="Слой 1" xmlns="http://www.w3.org/2000/svg" xmlns:xlink="http://www.w3.org/1999/xlink" viewBox="0 0 777.44 131.78"><defs><style>.cls-1,.cls-10,.cls-11,.cls-2,.cls-3,.cls-4,.cls-5,.cls-7,.cls-8,.cls-9{stroke:#1d1d1b;stroke-miterlimit:10;}.cls-1{fill:url(#Безымянный_градиент);}.cls-2{fill:url(#Безымянный_градиент-2);}.cls-3{fill:url(#Безымянный_градиент-3);}.cls-4{fill:url(#Безымянный_градиент-4);}.cls-5{fill:url(#Безымянный_градиент-5);}.cls-6{fill:#3567b0;}.cls-7{fill:url(#Безымянный_градиент-6);}.cls-8{fill:url(#Безымянный_градиент-7);}.cls-9{fill:url(#Безымянный_градиент-8);}.cls-10{fill:url(#Безымянный_градиент-9);}.cls-11{fill:url(#Безымянный_градиент-10);}</style><linearGradient id="Безымянный_градиент" x1="0.58" y1="44.35" x2="100.58" y2="44.35" gradientUnits="userSpaceOnUse"><stop offset="0" stop-color="#fff"/><stop offset="1"/></linearGradient><linearGradient id="Безымянный_градиент-2" x1="75.76" y1="87.98" x2="175.76" y2="87.98" xlink:href="#Безымянный_градиент"/><linearGradient id="Безымянный_градиент-3" x1="151.32" y1="44.35" x2="251.32" y2="44.35" xlink:href="#Безымянный_градиент"/><linearGradient id="Безымянный_градиент-4" x1="226.51" y1="87.98" x2="326.51" y2="87.98" xlink:href="#Безымянный_градиент"/><linearGradient id="Безымянный_градиент-5" x1="301.32" y1="44.35" x2="401.32" y2="44.35" xlink:href="#Безымянный_градиент"/><linearGradient id="Безымянный_градиент-6" x1="376.9" y1="87.4" x2="476.9" y2="87.4" xlink:href="#Безымянный_градиент"/><linearGradient id="Безымянный_градиент-7" x1="452.42" y1="43.8" x2="552.42" y2="43.8" xlink:href="#Безымянный_градиент"/><linearGradient id="Безымянный_градиент-8" x1="527.6" y1="87.4" x2="627.6" y2="87.4" xlink:href="#Безымянный_градиент"/><linearGradient id="Безымянный_градиент-9" x1="602.16" y1="44.35" x2="702.16" y2="44.35" xlink:href="#Безымянный_градиент"/><linearGradient id="Безымянный_градиент-10" x1="676.86" y1="87.13" x2="776.86" y2="87.13" xlink:href="#Безымянный_градиент"/></defs><title>hexogensnone</title><polygon class="cls-1" points="25.58 1.05 75.58 1.05 100.58 44.35 75.58 87.66 25.58 87.66 0.58 44.35 25.58 1.05"/><polygon class="cls-2" points="100.76 44.68 150.76 44.68 175.76 87.98 150.76 131.28 100.76 131.28 75.76 87.98 100.76 44.68"/><polygon class="cls-3" points="176.32 1.05 226.32 1.05 251.32 44.35 226.32 87.66 176.32 87.66 151.32 44.35 176.32 1.05"/><polygon class="cls-4" points="251.51 44.68 301.51 44.68 326.51 87.98 301.51 131.28 251.51 131.28 226.51 87.98 251.51 44.68"/><polygon class="cls-5" points="326.32 1.05 376.32 1.05 401.32 44.35 376.32 87.66 326.32 87.66 301.32 44.35 326.32 1.05"/><path class="cls-6" d="M34.43,36.38c0-6.54,3.71-12.84,9.28-16.94,8.19-6,20.2-7.12,29.2-2a21,21,0,0,1,6.27,5.35A1.63,1.63,0,0,1,77,25.13a30.16,30.16,0,0,0-22.93-1.64,29.59,29.59,0,0,0-12,7.42,28.92,28.92,0,0,0-4.49,6.2A1.71,1.71,0,0,1,34.43,36.38Zm38.13-5.13a25,25,0,0,0-20.27-3.17,1.57,1.57,0,0,0,.25,3.08,32.45,32.45,0,0,1,7.68,2.08,29.12,29.12,0,0,1,11.23,8.4A26.44,26.44,0,0,1,77.16,55.1a26.16,26.16,0,0,1-.29,7.49,1.7,1.7,0,0,0,3.06,1.16,19.55,19.55,0,0,0,3.5-7.24C85.78,47,81.07,36.72,72.55,31.25ZM63.17,42.59a27.29,27.29,0,0,1,.23,7.77,26.35,26.35,0,0,1-5.49,13A28.94,28.94,0,0,1,46,72.17,32.31,32.31,0,0,1,38.79,74a1.57,1.57,0,0,0-.22,3.08,22.8,22.8,0,0,0,8.2.91A25.89,25.89,0,0,0,69.32,60.33a21,21,0,0,0-3.1-18.91A1.7,1.7,0,0,0,63.17,42.59Zm-24.68,24C45.68,66.44,52.78,63.36,57,58a1.63,1.63,0,0,0-2.13-2.36,32.08,32.08,0,0,1-7.52,2.54,31,31,0,0,1-15.42-.93,29.68,29.68,0,0,1-12-7.41,27.82,27.82,0,0,1-4.46-6.22,1.71,1.71,0,0,0-3.2.74A19,19,0,0,0,14,52.14C18,61.11,28.2,66.82,38.49,66.6ZM37.33,54.87a1.61,1.61,0,0,0,1.73-2.63,29.35,29.35,0,0,1-4.91-5.92,25.76,25.76,0,0,1,0-27,28.22,28.22,0,0,1,4.94-5.9,1.61,1.61,0,0,0-1.75-2.63A21.87,21.87,0,0,0,30,14.7a23.59,23.59,0,0,0-7,26.66A23,23,0,0,0,37.33,54.87Z" transform="translate(0.58 1.05)"/><path class="cls-6" d="M188.92,39.23l2.48-2.42,2,2-4.87,4.75c-3.75-1.94-7.07-2.24-8.87-.52-2.8,2.7-.6,9,5.08,15l-5.6,5.33a2.19,2.19,0,0,0-2.16.48,2.08,2.08,0,0,0,0,3,2.2,2.2,0,0,0,3.06,0,2.06,2.06,0,0,0,.54-2.1l5.6-5.34c6,5.66,12.54,7.91,15.33,5.22,1.77-1.71,1.54-4.89-.32-8.5l5-4.88,2.76,2.69-2.48,2.42,17,16.62,9.21-9-17-16.61-2.48,2.42-2.76-2.69,7.44-7.26L205.13,27.37l-7.44,7.27-2-2,2.48-2.42-17-16.61-9.21,9Zm5.47,23.53-0.64-.31A27.15,27.15,0,0,1,187.61,58l0.82-.79,2.26-2.16-0.7-.7-0.7-.7L187,55.88l-0.81.78A26.92,26.92,0,0,1,182,50.94c-0.11-.21-0.23-0.43-0.33-0.64-1.33-2.73-1.51-4.94-.54-5.88s3.2-.73,6,0.59a27,27,0,0,1,7.06,5.1l0.17,0.16a26.35,26.35,0,0,1,5.39,7.33c1.22,2.62,1.37,4.72.43,5.63S197,64,194.39,62.76Z" transform="translate(0.58 1.05)"/><path class="cls-6" d="M284.89,115.65h17.56a0.52,0.52,0,0,0,.39-0.2,0.49,0.49,0,0,0,.1-0.43l-3.15-14.4a8.26,8.26,0,0,0-6.33-6.41c0.36-2,.21-3.48-0.45-4.31a1.84,1.84,0,0,0-1-.67V86.46L294,83.75a0.52,0.52,0,0,0,.1-0.3v-9.1a0.5,0.5,0,0,0-.19-0.4l-2.14-1.78C288.47,61.39,280.4,60.56,278,60.56c-0.39,0-.64,0-0.65,0H276s-10.48-1.16-14.32,11.58l-2.06,1.78a0.5,0.5,0,0,0-.18.39v9.1a0.52,0.52,0,0,0,.1.3l1.94,2.72V89.2a2,2,0,0,0-1.1.72c-0.67.85-.83,2.29-0.48,4.27a8.21,8.21,0,0,0-6.28,6.39L250.28,115a0.56,0.56,0,0,0,.1.45,0.52,0.52,0,0,0,.39.2h17.32a0.52,0.52,0,0,0,.51-0.52V104.22h16.29v11.43h0ZM265.54,84.49V73.56a0.56,0.56,0,0,1,.14-0.36c3.81-4,10-4.22,11.26-4.22h1.18c1.12,0,6.88.21,10.7,4.22a0.51,0.51,0,0,1,.14.36v5a9.63,9.63,0,0,1-1,1.08,11.33,11.33,0,0,1-1.1.89,11.79,11.79,0,0,1-6.24,2,3.18,3.18,0,1,0-.23,2.09,13.74,13.74,0,0,0,7.57-2.35l0,0c0.34-.24.66-0.49,1-0.75v2.93a0.37,0.37,0,0,1,0,.11c-0.06.3-.92,3-10.14,3h-1.18c-9.19,0-11.84-2.64-11.95-2.75A0.61,0.61,0,0,1,265.54,84.49Z" transform="translate(0.58 1.05)"/><path class="cls-6" d="M272.55,70.6a1,1,0,0,0-.51,0c-3.83,1.26-5.09,2.64-5.23,2.79a1,1,0,0,0-.26.68v4.15a1,1,0,1,0,2,0V74.55a13.51,13.51,0,0,1,4.07-2A1,1,0,0,0,272.55,70.6Z" transform="translate(0.58 1.05)"/><path class="cls-6" d="M379.72,24.65L352,11.06a3.3,3.3,0,0,0-3,0L321.76,24.65a2.38,2.38,0,0,0-1.2,2.16v4.87A2.17,2.17,0,0,0,322.5,34H324a0.54,0.54,0,0,1,.49.58v31c0,2.9,2,5.26,4.38,5.26h1.27V42.72h41.28V70.81h1.27c2.42,0,4.38-2.35,4.38-5.26v-31a0.54,0.54,0,0,1,.49-0.58H379a2.17,2.17,0,0,0,1.95-2.34V26.82A2.38,2.38,0,0,0,379.72,24.65ZM340,34H330.3V28.75H340V34h0Zm15.58,0h-9.74V28.75h9.74V34Zm15.58,0h-9.74V28.75h9.74V34h0ZM342.57,59.13H339.8v4.59H338.5V59.13h-2.79a2,2,0,0,0-1.82,2.19v7.3a2,2,0,0,0,1.82,2.19h6.85a2,2,0,0,0,1.82-2.19v-7.3A2,2,0,0,0,342.57,59.13Zm11.61,0h-2.77v4.59h-1.29V59.13h-2.79a2,2,0,0,0-1.82,2.19v7.3a2,2,0,0,0,1.82,2.19h6.85A2,2,0,0,0,356,68.62v-7.3A2,2,0,0,0,354.18,59.13Zm11.83,0h-2.77v4.59h-1.29V59.13h-2.79a2,2,0,0,0-1.82,2.19v7.3a2,2,0,0,0,1.82,2.19H366a2,2,0,0,0,1.82-2.19v-7.3A2,2,0,0,0,366,59.13ZM348.4,46h-2.77v4.59h-1.29V46h-2.79a2,2,0,0,0-1.82,2.19v7.3a2,2,0,0,0,1.82,2.19h6.85a2,2,0,0,0,1.82-2.19v-7.3A2,2,0,0,0,348.4,46Zm11.89,0h-2.77v4.59h-1.29V46h-2.79a2,2,0,0,0-1.82,2.19v7.3a2,2,0,0,0,1.82,2.19h6.85a2,2,0,0,0,1.82-2.19v-7.3A2,2,0,0,0,360.29,46Z" transform="translate(0.58 1.05)"/><polygon class="cls-7" points="401.9 44.1 451.9 44.1 476.9 87.41 451.9 130.71 401.9 130.71 376.9 87.41 401.9 44.1"/><polygon class="cls-8" points="477.43 0.5 527.42 0.5 552.42 43.8 527.42 87.1 477.43 87.1 452.43 43.8 477.43 0.5"/><polygon class="cls-9" points="552.6 44.1 602.6 44.1 627.6 87.41 602.6 130.71 552.6 130.71 527.6 87.41 552.6 44.1"/><polygon class="cls-10" points="627.16 1.05 677.16 1.05 702.16 44.35 677.16 87.66 627.16 87.66 602.16 44.35 627.16 1.05"/><path class="cls-6" d="M652.29,8.71A34.6,34.6,0,1,0,687.11,43.3,34.75,34.75,0,0,0,652.29,8.71Zm0,63.68A29.09,29.09,0,1,1,681.57,43.3,29.22,29.22,0,0,1,652.29,72.39Z" transform="translate(0.58 1.05)"/><path class="cls-6" d="M660.2,36V24.88a3.47,3.47,0,0,0-3.49-3.46h-7.54a3.47,3.47,0,0,0-3.49,3.46V36h-11.2A3.47,3.47,0,0,0,631,39.46v7.65a3.47,3.47,0,0,0,3.49,3.46h11.19V61.69a3.47,3.47,0,0,0,3.49,3.46h7.55a3.48,3.48,0,0,0,3.49-3.46V50.58h11.19a3.48,3.48,0,0,0,3.49-3.46V39.46A3.47,3.47,0,0,0,671.39,36H660.2Z" transform="translate(0.58 1.05)"/><g id="steering_wheel"><path class="cls-6" d="M502.17,13.29c-17.38,0-31.47,13.44-31.47,30s14.09,30,31.47,30,31.47-13.44,31.47-30S519.54,13.29,502.17,13.29Zm0,7.5a23.53,23.53,0,0,1,22.16,15H480A23.53,23.53,0,0,1,502.17,20.79Zm0,26.26a3.76,3.76,0,1,1,3.93-3.75A3.84,3.84,0,0,1,502.17,47.05Zm-23.6-3.75c10.75,0,19.45,9.88,19.64,22.13C487.08,63.61,478.57,54.42,478.57,43.3Zm27.57,22.13C506.31,53.18,515,43.3,525.77,43.3,525.77,54.42,517.26,63.61,506.13,65.43Z" transform="translate(0.58 1.05)"/></g><path class="cls-6" d="M603.3,102.45h-0.22c1.75-13.49-2.9-21.68-6.28-25.7a8.31,8.31,0,0,0-1.52-3.37l2.12-2a5.29,5.29,0,0,0,1.37-5.74l4.1-3.87a2.27,2.27,0,0,0,0-3.34L597,52.86a2.61,2.61,0,0,0-3.54,0l-4.1,3.87a6.15,6.15,0,0,0-2-.32h0A6,6,0,0,0,583.25,58l-19.1,18a5.29,5.29,0,0,0-1.37,5.74L561,83.44a5.29,5.29,0,0,0,0,7.79l1.18,1.11a6.09,6.09,0,0,0,8.25,0l1.74-1.64a6.15,6.15,0,0,0,2,.32,6,6,0,0,0,4.13-1.61l4.27-4a9.17,9.17,0,0,0,1,.56,14.32,14.32,0,0,1-2.12,11.72,23.17,23.17,0,0,1-4.1,4.8h-21l-2.36-2.19h20.3a2.36,2.36,0,1,0,0-4.72H547.8A2.51,2.51,0,0,0,545.48,97a2.27,2.27,0,0,0,.56,2.58l7,6.47v7a2.43,2.43,0,0,0,2.5,2.36H603.3a2.43,2.43,0,0,0,2.5-2.36v-8.26A2.43,2.43,0,0,0,603.3,102.45Zm-38.11,8.26-3.82-3.54h20a9,9,0,0,0,2,3.54H565.19ZM566.93,89a0.87,0.87,0,0,1-1.18,0l-1.18-1.11a0.76,0.76,0,0,1,0-1.11l1.35-1.27,2.36,2.23Zm11.82-10.63a8.13,8.13,0,0,0,.69,3.27l-4.68,4.42a0.87,0.87,0,0,1-1.18,0l-5.89-5.56a0.76,0.76,0,0,1,0-1.11l19.1-18a0.87,0.87,0,0,1,1.18,0l1.5,1.41L590,63.31l0.28,0.26,1.21,1.14L591.8,65l0.57,0.53,1.49,1.41a0.76,0.76,0,0,1,0,1.11l-2.53,2.39a9.61,9.61,0,0,0-3.48-.64A8.87,8.87,0,0,0,578.75,78.37Zm12,30.84a4.49,4.49,0,1,1,4.74-4.48A4.62,4.62,0,0,1,590.73,109.21Zm10.06,1.5h-2.66a9,9,0,0,0,2-3.54h0.66v3.54h0Z" transform="translate(0.58 1.05)"/><path class="cls-6" d="M138.63,61A75.49,75.49,0,0,1,148,58.1a4.32,4.32,0,0,1,4.42,1.56,4.42,4.42,0,0,1,.82,3.74,77.53,77.53,0,0,1-2.84,9.44Zm3.63,37.93a2.13,2.13,0,0,1-.37,1.67l-11.58,15.78a2.07,2.07,0,0,1-2.67.6,2.12,2.12,0,0,1-1-2.58c0-.08,2.29-6.47,1.76-10.88a16.16,16.16,0,0,0-1.16-4.36,13.66,13.66,0,0,1-2.2.25l-1.28,4.27a2.1,2.1,0,0,1-1.49,1.44,2.07,2.07,0,0,1-2-.56L120,104.2a18.1,18.1,0,0,1-5.13,6.49c-4.08,3.07-12.13,3.31-14.5,3.31H100a2.1,2.1,0,0,1-2-2.07c0-1.06-.11-10.46,3.27-15.05a18,18,0,0,1,6.43-5.18l-0.33-.33a2.13,2.13,0,0,1-.55-2,2.1,2.1,0,0,1,1.42-1.51l4.22-1.29a14.05,14.05,0,0,1,.25-2.22,15.71,15.71,0,0,0-4.32-1.18,11.59,11.59,0,0,0-1.4-.08,32.77,32.77,0,0,0-9.37,1.86,2.08,2.08,0,0,1-2.55-1,2.13,2.13,0,0,1,.6-2.7l15.62-11.71a2.07,2.07,0,0,1,1.65-.37,29.2,29.2,0,0,1,3.68,1.22,32.65,32.65,0,0,1,3.69,1.71,52.11,52.11,0,0,1,14.24-9.38l14.19,14.34a52.78,52.78,0,0,1-9.28,14.39,33.32,33.32,0,0,1,1.69,3.73A29.94,29.94,0,0,1,142.26,98.9ZM116.81,101l-6.05-6.12a14.87,14.87,0,0,0-6.23,4.51c-1.69,2.3-2.26,7.17-2.41,10.34,3.75-.17,8.15-0.86,10.23-2.43A15.11,15.11,0,0,0,116.81,101Zm20.85-15.48a8.34,8.34,0,0,0,0-11.71,8.13,8.13,0,0,0-11.59,0,8.34,8.34,0,0,0,0,11.71A8.13,8.13,0,0,0,137.67,85.52Zm-5.79-9.91A4,4,0,0,0,129,76.8a4.09,4.09,0,0,0,0,5.74,4,4,0,0,0,5.68,0,4.09,4.09,0,0,0,0-5.74A4,4,0,0,0,131.87,75.61Z" transform="translate(0.58 1.05)"/><path class="cls-6" d="M410.28,81.68a5.51,5.51,0,0,1,4.54,1.49l3,2.91,2.84-2.74-4.1-4a1.55,1.55,0,0,1,0-2.24,1.67,1.67,0,0,1,2.31,0l4.1,4,2.84-2.74-3-2.92a5.15,5.15,0,0,1-1.54-4.4,12.14,12.14,0,0,0-3.63-10.37,13,13,0,0,0-10.91-3.49,0.73,0.73,0,0,0-.43,1.25l3.86,3.74a4.44,4.44,0,0,1,0,6.43l-2.38,2.3a4.79,4.79,0,0,1-6.64,0l-3.88-3.74a0.77,0.77,0,0,0-1.29.41,12.11,12.11,0,0,0,3.6,10.57A13,13,0,0,0,410.28,81.68Z" transform="translate(0.58 1.05)"/><path class="cls-6" d="M434.31,86.61l-2.84,2.74,16.85,16.33a1.55,1.55,0,0,1,0,2.24,1.67,1.67,0,0,1-2.31,0L429.16,91.59l-2.84,2.74,17.36,16.82a5.76,5.76,0,0,0,8,0,5.34,5.34,0,0,0,0-7.72Z" transform="translate(0.58 1.05)"/><path class="cls-6" d="M440.82,75.71h7.49l7.49-14.5-3.74-3.62-15,7.24v7.26L416.73,91.75l-3.66-3.54L398.31,102.5a7.45,7.45,0,0,0,0,10.78,8,8,0,0,0,11.13,0L424.19,99l-3.74-3.62Z" transform="translate(0.58 1.05)"/><polygon class="cls-11" points="701.86 43.83 751.86 43.83 776.86 87.13 751.86 130.43 701.86 130.43 676.86 87.13 701.86 43.83"/><path class="cls-6" d="M753.36,62.35H699.21a5.48,5.48,0,0,0-5.57,5.39V100a5.48,5.48,0,0,0,5.57,5.39h21.72v4.87h-4.39a3.64,3.64,0,1,0,0,7.27H736a3.64,3.64,0,1,0,0-7.27h-4.39v-4.87h21.72a5.48,5.48,0,0,0,5.57-5.39V67.73A5.48,5.48,0,0,0,753.36,62.35ZM700.21,93.9a5.33,5.33,0,1,1,5.33,5.15A5.25,5.25,0,0,1,700.21,93.9Zm52.25,5.28H719.67a0.94,0.94,0,0,0-.26-1.07l-2.14-1.84a11.24,11.24,0,0,0,0-4.77l2.14-1.84a0.94,0.94,0,0,0,.2-1.2l-2.18-3.66a1,1,0,0,0-1.17-.43l-2.72.87a12.09,12.09,0,0,0-4.26-2.38l-0.58-2.71a1,1,0,0,0-1-.77h-4.37a1,1,0,0,0-1,.77l-0.58,2.71a12.16,12.16,0,0,0-1.7.69v-15h52.36V99.19h0Z" transform="translate(0.58 1.05)"/><path class="cls-6" d="M723,83.61a0.59,0.59,0,0,0-.69.25L721,86a0.55,0.55,0,0,0,.12.71l1.26,1.08a6.63,6.63,0,0,0,0,2.81l-1.26,1.08a0.55,0.55,0,0,0-.12.71l1.29,2.16a0.59,0.59,0,0,0,.69.25l1.6-.52a7.13,7.13,0,0,0,2.51,1.41l0.34,1.6a0.58,0.58,0,0,0,.57.45h2.57a0.58,0.58,0,0,0,.57-0.45l0.34-1.6A7.13,7.13,0,0,0,734,94.3l1.6,0.52a0.59,0.59,0,0,0,.69-0.25l1.29-2.16a0.55,0.55,0,0,0-.12-0.71l-1.26-1.08a6.62,6.62,0,0,0,0-2.81l1.26-1.08A0.55,0.55,0,0,0,737.6,86l-1.29-2.16a0.59,0.59,0,0,0-.69-0.25l-1.6.52a7.13,7.13,0,0,0-2.51-1.41l-0.34-1.6a0.58,0.58,0,0,0-.57-0.45H728a0.58,0.58,0,0,0-.57.45l-0.34,1.6a7.13,7.13,0,0,0-2.51,1.41Zm6.31,2.57a3,3,0,1,1-3.14,3A3.09,3.09,0,0,1,729.31,86.17Z" transform="translate(0.58 1.05)"/><path class="cls-6" d="M715,76.54a4.54,4.54,0,0,0,0,1.93l-0.86.74a0.38,0.38,0,0,0-.08.48l0.88,1.48a0.41,0.41,0,0,0,.47.17l1.1-.35a4.89,4.89,0,0,0,1.72,1L718.47,83a0.4,0.4,0,0,0,.39.31h1.76A0.4,0.4,0,0,0,721,83L721.25,82A4.89,4.89,0,0,0,723,81l1.1,0.35a0.41,0.41,0,0,0,.47-0.17l0.88-1.48a0.38,0.38,0,0,0-.08-0.48l-0.86-.74a4.54,4.54,0,0,0,0-1.93l0.86-.74a0.38,0.38,0,0,0,.08-0.48l-0.88-1.48a0.41,0.41,0,0,0-.47-0.17L723,74a4.89,4.89,0,0,0-1.72-1L721,72a0.4,0.4,0,0,0-.39-0.31h-1.76a0.4,0.4,0,0,0-.39.31l-0.23,1.09a4.88,4.88,0,0,0-1.72,1l-1.1-.35a0.41,0.41,0,0,0-.47.17l-0.88,1.48a0.38,0.38,0,0,0,.08.48Zm4.74-1.12a2.08,2.08,0,1,1-2.15,2.08A2.12,2.12,0,0,1,719.74,75.42Z" transform="translate(0.58 1.05)"/></svg>